<svg xmlns="http://www.w3.org/2000/svg" width="300" height="600" viewBox="0 0 300 600">
<path fill="#EDA15A" d="M262,262 C288,262 292,300 276,318 C270,326 264,320 268,312 C278,298 276,276 260,276 Z"/><ellipse cx="240" cy="270" rx="22" ry="19" fill="#EDA15A"/><ellipse cx="240" cy="278" rx="12" ry="10" fill="#F7D7AE"/><polygon fill="#EDA15A" points="234,222 236,202 248,216"/><polygon fill="#EDA15A" points="256,216 266,202 266,224"/><polygon fill="#F6C1CC" points="238,218 239,208 245,215"/><polygon fill="#F6C1CC" points="259,215 264,208 264,219"/><circle cx="250" cy="234" r="19" fill="#EDA15A"/><ellipse cx="250" cy="242" rx="9" ry="6" fill="#F7D7AE"/><rect x="244" y="216" width="3" height="8" rx="1.5" fill="#D27F3B"/><rect x="250" y="215" width="3" height="8" rx="1.5" fill="#D27F3B"/><rect x="256" y="216" width="3" height="8" rx="1.5" fill="#D27F3B"/><circle cx="243" cy="232" r="3" fill="#3B2522"/><circle cx="257" cy="232" r="3" fill="#3B2522"/><polygon fill="#E58FA5" points="248,239 252,239 250,242"/><ellipse cx="226" cy="286" rx="7" ry="5" fill="#EDA15A"/><ellipse cx="242" cy="288" rx="7" ry="5" fill="#EDA15A"/>
</svg>
