<svg xmlns="http://www.w3.org/2000/svg" width="300" height="600" viewBox="0 0 300 600">
<path fill="#F1E4CF" d="M106,360 L194,360 L246,500 Q150,518 54,500 Z"/><path fill="#E2CFAF" d="M54,500 Q150,518 246,500 L248,506 Q150,524 52,506 Z"/><rect x="72" y="286" width="32" height="48" rx="14" fill="#F1E4CF"/><rect x="72" y="324" width="32" height="10" rx="5" fill="#E2CFAF"/><rect x="196" y="286" width="32" height="48" rx="14" fill="#F1E4CF"/><rect x="196" y="324" width="32" height="10" rx="5" fill="#E2CFAF"/><path fill="#F1E4CF" d="M104,302 Q104,280 126,280 L174,280 Q196,280 196,302 L196,364 L104,364 Z"/><rect x="104" y="354" width="92" height="10" rx="4" fill="#E2CFAF"/><path fill="#C98B92" d="M150,296 C138,284 126,288 128,298 C130,308 142,304 150,298 Z"/><path fill="#C98B92" d="M150,296 C162,284 174,288 172,298 C170,308 158,304 150,298 Z"/><path fill="#C98B92" d="M147,298 L140,316 L146,313 L150,318 L151,299 Z"/><path fill="#C98B92" d="M153,298 L160,316 L154,313 L150,318 L149,299 Z"/><circle cx="150" cy="297" r="5" fill="#B57880"/>
</svg>
