<svg xmlns="http://www.w3.org/2000/svg" width="300" height="600" viewBox="0 0 300 600">
<path fill="#CDB8E6" d="M58,318 C40,316 6,296 4,262 C2,236 30,230 42,250 L42,284 C48,296 54,306 58,318 Z"/><path fill="#CDB8E6" transform="matrix(-1 0 0 1 300 0)" d="M58,318 C40,316 6,296 4,262 C2,236 30,230 42,250 L42,284 C48,296 54,306 58,318 Z"/><path fill="#CDB8E6" d="M72,334 C56,336 26,356 30,392 C34,418 60,400 72,368 Z"/><path fill="#CDB8E6" transform="matrix(-1 0 0 1 300 0)" d="M72,334 C56,336 26,356 30,392 C34,418 60,400 72,368 Z"/><path fill="#E9DFF6" d="M48,308 C34,304 16,290 16,268 C16,252 30,250 38,262 L40,290 C42,298 45,303 48,308 Z"/><path fill="#E9DFF6" transform="matrix(-1 0 0 1 300 0)" d="M48,308 C34,304 16,290 16,268 C16,252 30,250 38,262 L40,290 C42,298 45,303 48,308 Z"/><path fill="#E9DFF6" d="M68,346 C56,350 40,366 42,386 C46,400 60,388 68,366 Z"/><path fill="#E9DFF6" transform="matrix(-1 0 0 1 300 0)" d="M68,346 C56,350 40,366 42,386 C46,400 60,388 68,366 Z"/>
</svg>
